<svg xmlns="http://www.w3.org/2000/svg" viewBox="0 0 256 256">
  <defs>
    <linearGradient id="glpiGradient" x1="0%" y1="0%" x2="100%" y2="100%">
      <stop offset="0%" style="stop-color:#FF6B35;stop-opacity:1" />
      <stop offset="100%" style="stop-color:#F72B1C;stop-opacity:1" />
    </linearGradient>
  </defs>
  
  <!-- Background Circle -->
  <circle cx="128" cy="128" r="120" fill="url(#glpiGradient)"/>
  
  <!-- GLPI Text/Logo representation -->
  <g fill="white">
    <!-- Letter G -->
    <path d="M 60 100 Q 60 70, 90 70 L 110 70 L 110 85 L 90 85 Q 75 85, 75 100 L 75 140 Q 75 155, 90 155 L 110 155 L 110 125 L 95 125 L 95 110 L 125 110 L 125 170 L 90 170 Q 60 170, 60 140 Z"/>
    
    <!-- Letter L -->
    <path d="M 135 70 L 150 70 L 150 155 L 180 155 L 180 170 L 135 170 Z"/>
    
    <!-- Simplified IT icon (computer/server) -->
    <rect x="85" y="185" width="86" height="8" fill="white" rx="2"/>
    <rect x="95" y="178" width="66" height="4" fill="white"/>
    <rect x="100" y="195" width="56" height="3" fill="white"/>
  </g>
</svg>
